<svg width="2154" height="703" viewBox="0 0 2154 703" fill="none" xmlns="http://www.w3.org/2000/svg">
<path d="M0.730049 487.064H68.7408C68.7408 487.064 66.7219 194.495 74.1951 172.342L62.2719 152.884C48.2894 130.065 20.8859 125.177 10.9468 147.868C10.4433 149.017 9.98458 150.238 9.57473 151.53C-3.76997 225.827 0.730049 487.064 0.730049 487.064Z" fill="url(#paint0_linear_63_112)"/>
<path d="M268.869 120.708C268.869 120.708 271.184 364.272 259.467 414.13C283.422 443.785 322.405 443.194 328.752 405.604C341.625 329.372 333.205 196.143 336.843 120.856L371.667 120.828L304.166 0L228.819 119.679L268.869 120.708Z" fill="url(#paint1_linear_63_112)"/>
<path d="M62.2719 152.884L74.1951 172.342C120.571 245.646 138.349 327.067 178.941 415.522C219.532 503.978 309.268 520.991 328.752 405.604C322.405 443.194 283.422 443.785 259.467 414.13C222.427 375.356 165.989 172.782 120.941 124.13C64.1646 62.8109 24.932 112.36 10.9468 147.868C20.8859 125.177 48.2894 130.065 62.2719 152.884Z" fill="#397BFB"/>
<path d="M567.011 350.242C567.011 353.968 570.03 356.987 573.756 356.987H606.637C610.362 356.987 613.382 353.968 613.382 350.242V348.556L658.91 356.987V356.987C666.36 356.987 672.4 350.948 672.4 343.497V336.753C672.4 329.302 666.36 323.263 658.91 323.263V323.263L613.382 331.694V330.008C613.382 326.282 610.362 323.263 606.637 323.263H573.756C570.03 323.263 567.011 326.282 567.011 330.008V331.694L521.482 323.263V323.263C514.032 323.263 507.993 329.302 507.993 336.753V343.497C507.993 350.948 514.032 356.987 521.482 356.987V356.987L567.011 348.556V350.242Z" fill="#262626"/>
<path d="M518.11 404.781V473.285V488.461H535.815V473.285H623.499C628.156 473.285 631.93 477.059 631.93 481.716V488.461H694.321V442.089C694.321 411.737 662.845 404.571 647.107 404.781H617.598V388.973H607.48V367.052H572.069V388.973H562.795V404.781H535.815V388.973H518.11V404.781Z" fill="#262626"/>
<path d="M489.707 473.285C483.384 473.285 476.534 472.582 469.157 471.177C461.955 469.596 454.753 467.225 447.552 464.063C440.526 460.901 433.763 456.861 427.264 451.943C420.765 446.849 414.969 440.789 409.875 433.764C404.957 426.562 401.005 418.306 398.019 408.997C395.033 399.512 393.54 388.885 393.54 377.117V356.935V341.759V330.798V314.779V191.631C393.54 185.308 394.242 178.545 395.647 171.344C397.228 163.967 399.6 156.765 402.761 149.739C405.923 142.537 410.051 135.687 415.144 129.188C420.238 122.689 426.298 116.981 433.324 112.062C440.526 106.969 448.781 102.929 458.091 99.9426C467.4 96.9565 477.939 95.4635 489.707 95.4635L623.499 95.4635C628.156 95.4635 631.93 91.6887 631.93 87.0324V80.2874H618V63.6295H708V80.2874H694.321V126.659C694.321 157.011 662.845 164.177 647.107 163.967L489.707 163.967C480.749 163.967 473.899 166.338 469.157 171.08C464.414 175.823 462.043 182.849 462.043 192.158V314.779V330.798V341.759V356.935V377.117C462.043 385.899 464.414 392.75 469.157 397.668C474.075 402.41 480.925 404.781 489.707 404.781V388.973H506.86V404.781V473.285V488.461H489.707V473.285Z" fill="#262626"/>
<line x1="1.5" y1="551" x2="1.5" y2="622" stroke="#262626" stroke-width="3"/>
<line x1="695.5" y1="551" x2="695.5" y2="622" stroke="#262626" stroke-width="3"/>
<path d="M1 585.5L16 594.16V576.84L1 585.5ZM694 585.5L679 576.84V594.16L694 585.5ZM14.5 587H680.5V584H14.5V587Z" fill="#262626"/>
<path d="M251.424 697H289.664V692.84H260.624L281.024 671.8C283.157 669.613 284.944 667.187 286.384 664.52C287.877 661.853 288.624 659 288.624 655.96C288.624 654.253 288.304 652.493 287.664 650.68C287.024 648.813 286.011 647.107 284.624 645.56C283.291 643.96 281.557 642.653 279.424 641.64C277.344 640.627 274.837 640.12 271.904 640.12C268.277 640.12 265.131 640.973 262.464 642.68C259.851 644.333 257.824 646.68 256.384 649.72C254.997 652.707 254.304 656.2 254.304 660.2H258.704C258.704 657 259.237 654.2 260.304 651.8C261.371 649.4 262.891 647.56 264.864 646.28C266.837 644.947 269.184 644.28 271.904 644.28C273.984 644.28 275.771 644.653 277.264 645.4C278.811 646.093 280.091 647.027 281.104 648.2C282.117 649.32 282.864 650.573 283.344 651.96C283.824 653.347 284.064 654.733 284.064 656.12C284.064 657.88 283.771 659.533 283.184 661.08C282.651 662.573 281.877 663.987 280.864 665.32C279.904 666.653 278.811 668.013 277.584 669.4L251.424 697ZM301.494 669C301.494 665.533 301.841 662.307 302.534 659.32C303.227 656.333 304.214 653.72 305.494 651.48C306.827 649.24 308.427 647.507 310.294 646.28C312.161 645 314.267 644.36 316.614 644.36C319.014 644.36 321.121 645 322.934 646.28C324.801 647.507 326.374 649.24 327.654 651.48C328.987 653.72 330.001 656.333 330.694 659.32C331.387 662.307 331.734 665.533 331.734 669C331.734 672.467 331.387 675.693 330.694 678.68C330.001 681.667 328.987 684.28 327.654 686.52C326.374 688.76 324.801 690.52 322.934 691.8C321.121 693.027 319.014 693.64 316.614 693.64C314.267 693.64 312.161 693.027 310.294 691.8C308.427 690.52 306.827 688.76 305.494 686.52C304.214 684.28 303.227 681.667 302.534 678.68C301.841 675.693 301.494 672.467 301.494 669ZM297.094 669C297.094 674.493 297.894 679.4 299.494 683.72C301.094 688.04 303.361 691.48 306.294 694.04C309.227 696.547 312.667 697.8 316.614 697.8C320.561 697.8 324.001 696.547 326.934 694.04C329.867 691.48 332.134 688.04 333.734 683.72C335.334 679.4 336.134 674.493 336.134 669C336.134 663.507 335.334 658.6 333.734 654.28C332.134 649.96 329.867 646.547 326.934 644.04C324.001 641.48 320.561 640.2 316.614 640.2C312.667 640.2 309.227 641.48 306.294 644.04C303.361 646.547 301.094 649.96 299.494 654.28C297.894 658.6 297.094 663.507 297.094 669ZM346.7 649.08L359.58 645.72V697H363.98V640.36L346.7 644.52V649.08ZM394.588 668.84C397.894 668.84 400.881 668.253 403.548 667.08C406.268 665.853 408.428 664.173 410.028 662.04C411.681 659.907 412.508 657.48 412.508 654.76C412.508 652.2 411.894 649.827 410.668 647.64C409.494 645.453 407.761 643.667 405.468 642.28C403.228 640.893 400.508 640.2 397.308 640.2C394.268 640.2 391.574 640.84 389.228 642.12C386.934 643.347 385.121 645.053 383.788 647.24C382.508 649.427 381.868 651.987 381.868 654.92H386.108C386.108 651.827 387.148 649.267 389.228 647.24C391.308 645.213 394.028 644.2 397.388 644.2C399.681 644.2 401.601 644.707 403.148 645.72C404.748 646.68 405.948 647.987 406.748 649.64C407.601 651.24 408.028 653 408.028 654.92C408.028 656.573 407.654 658.093 406.908 659.48C406.214 660.813 405.228 661.96 403.948 662.92C402.721 663.88 401.308 664.627 399.708 665.16C398.108 665.693 396.401 665.96 394.588 665.96V668.84ZM396.988 697.8C400.348 697.8 403.308 697.16 405.868 695.88C408.428 694.6 410.428 692.813 411.868 690.52C413.361 688.227 414.108 685.56 414.108 682.52C414.108 679.853 413.548 677.533 412.428 675.56C411.361 673.587 409.894 671.987 408.028 670.76C406.161 669.48 404.054 668.547 401.708 667.96C399.414 667.32 397.041 667 394.588 667V669.88C396.401 669.88 398.188 670.147 399.948 670.68C401.708 671.16 403.308 671.907 404.748 672.92C406.241 673.933 407.414 675.213 408.268 676.76C409.174 678.253 409.628 680.013 409.628 682.04C409.628 684.333 409.094 686.36 408.028 688.12C407.014 689.827 405.548 691.187 403.628 692.2C401.761 693.16 399.548 693.64 396.988 693.64C394.321 693.64 392.001 693.16 390.028 692.2C388.054 691.187 386.534 689.827 385.468 688.12C384.454 686.36 383.948 684.387 383.948 682.2H379.468C379.468 684.387 379.868 686.44 380.668 688.36C381.468 690.227 382.614 691.88 384.108 693.32C385.654 694.707 387.494 695.8 389.628 696.6C391.814 697.4 394.268 697.8 396.988 697.8Z" fill="black"/>
<path d="M1117 294H1060L988 168V294H934V84H991L1063 210V84H1117V294ZM1213.14 255C1223.74 255 1235.74 253 1249.14 249V231H1205.64C1202.64 231 1200.14 232 1198.14 234C1196.14 236 1195.14 238.5 1195.14 241.5V244.5C1195.14 247.5 1196.14 250 1198.14 252C1200.14 254 1202.64 255 1205.64 255H1213.14ZM1157.64 138C1194.24 134 1227.24 132 1256.64 132C1270.24 132 1281.14 136.1 1289.34 144.3C1297.54 152.5 1301.64 163.4 1301.64 177V294H1255.14L1252.14 279C1242.74 285.2 1233.04 289.8 1223.04 292.8C1213.24 295.6 1204.94 297 1198.14 297H1187.64C1174.04 297 1163.14 292.9 1154.94 284.7C1146.74 276.5 1142.64 265.6 1142.64 252V238.5C1142.64 224.9 1146.74 214 1154.94 205.8C1163.14 197.6 1174.04 193.5 1187.64 193.5H1249.14V181.5C1249.14 178.5 1248.14 176 1246.14 174C1244.14 172 1241.64 171 1238.64 171C1225.64 171 1211.24 171.6 1195.44 172.8C1179.84 174 1167.24 174.9 1157.64 175.5V138ZM1468.06 175.5L1385.56 253.5H1468.06V294H1319.56V253.5L1402.06 175.5H1319.56V135H1468.06V175.5ZM1552.11 255C1562.71 255 1574.71 253 1588.11 249V231H1544.61C1541.61 231 1539.11 232 1537.11 234C1535.11 236 1534.11 238.5 1534.11 241.5V244.5C1534.11 247.5 1535.11 250 1537.11 252C1539.11 254 1541.61 255 1544.61 255H1552.11ZM1496.61 138C1533.21 134 1566.21 132 1595.61 132C1609.21 132 1620.11 136.1 1628.31 144.3C1636.51 152.5 1640.61 163.4 1640.61 177V294H1594.11L1591.11 279C1581.71 285.2 1572.01 289.8 1562.01 292.8C1552.21 295.6 1543.91 297 1537.11 297H1526.61C1513.01 297 1502.11 292.9 1493.91 284.7C1485.71 276.5 1481.61 265.6 1481.61 252V238.5C1481.61 224.9 1485.71 214 1493.91 205.8C1502.11 197.6 1513.01 193.5 1526.61 193.5H1588.11V181.5C1588.11 178.5 1587.11 176 1585.11 174C1583.11 172 1580.61 171 1577.61 171C1564.61 171 1550.21 171.6 1534.41 172.8C1518.81 174 1506.21 174.9 1496.61 175.5V138ZM1759.02 178.5C1746.42 178.5 1733.42 181.5 1720.02 187.5V294H1667.52V135H1714.02L1717.02 154.5C1734.22 139.5 1752.22 132 1771.02 132H1784.52V178.5H1759.02ZM1858.01 231V294H1805.51V84H1858.01V190.5H1882.01L1915.01 135H1970.51L1925.51 211.5L1970.51 294H1915.01L1880.51 231H1858.01ZM2144.46 249C2144.46 264 2140.16 275.8 2131.56 284.4C2123.16 292.8 2111.46 297 2096.46 297H2027.46C2012.46 297 2000.66 292.8 1992.06 284.4C1983.66 275.8 1979.46 264 1979.46 249V180C1979.46 165 1983.66 153.3 1992.06 144.9C2000.66 136.3 2012.46 132 2027.46 132H2096.46C2111.46 132 2123.16 136.3 2131.56 144.9C2140.16 153.3 2144.46 165 2144.46 180V249ZM2091.96 184.5C2091.96 176.5 2087.96 172.5 2079.96 172.5H2043.96C2035.96 172.5 2031.96 176.5 2031.96 184.5V244.5C2031.96 252.5 2035.96 256.5 2043.96 256.5H2079.96C2087.96 256.5 2091.96 252.5 2091.96 244.5V184.5Z" fill="#2C69E0"/>
<path d="M1036 480C1006.27 482.667 981.6 484 962 484C948.933 484 939.333 480.933 933.2 474.8C927.067 468.667 924 459.067 924 446V382C924 368 927.133 357.867 933.4 351.6C939.8 345.2 950 342 964 342H1036V370H972C964 370 960 374 960 382V446C960 449.067 960.867 451.533 962.6 453.4C964.467 455.133 966.8 456 969.6 456C972.4 456 975.467 456 978.8 456C982.133 455.867 985.6 455.733 989.2 455.6C992.8 455.467 996.4 455.333 1000 455.2C1003.73 455.067 1008.47 454.8 1014.2 454.4C1020.07 454 1027.33 453.533 1036 453V480ZM1158.02 452C1158.02 462 1155.16 469.867 1149.42 475.6C1143.82 481.2 1136.02 484 1126.02 484H1080.02C1070.02 484 1062.16 481.2 1056.42 475.6C1050.82 469.867 1048.02 462 1048.02 452V406C1048.02 396 1050.82 388.2 1056.42 382.6C1062.16 376.867 1070.02 374 1080.02 374H1126.02C1136.02 374 1143.82 376.867 1149.42 382.6C1155.16 388.2 1158.02 396 1158.02 406V452ZM1123.02 409C1123.02 403.667 1120.36 401 1115.02 401H1091.02C1085.69 401 1083.02 403.667 1083.02 409V449C1083.02 454.333 1085.69 457 1091.02 457H1115.02C1120.36 457 1123.02 454.333 1123.02 449V409ZM1247 374C1257.8 374 1266.13 378 1272 386C1278.13 381.867 1284.73 378.867 1291.8 377C1299 375 1305.4 374 1311 374H1313C1322.07 374 1329.33 376.733 1334.8 382.2C1340.27 387.667 1343 394.933 1343 404V482H1308V410C1308 408 1307.33 406.333 1306 405C1304.67 403.667 1303 403 1301 403H1300C1294 403 1286.33 404.333 1277 407V482H1242V410C1242 408 1241.33 406.333 1240 405C1238.67 403.667 1237 403 1235 403H1234C1228 403 1220.33 404.333 1211 407V482H1176V376H1207L1209 386C1215.27 381.867 1221.67 378.867 1228.2 377C1234.87 375 1240.47 374 1245 374H1247ZM1419.96 403C1412.89 403 1404.89 404.333 1395.96 407V455H1425.96C1431.29 455 1433.96 452.333 1433.96 447V410C1433.96 408 1433.29 406.333 1431.96 405C1430.63 403.667 1428.96 403 1426.96 403H1419.96ZM1395.96 482V516H1360.96V376H1391.96L1393.96 386C1400.23 381.867 1406.63 378.867 1413.16 377C1419.83 375 1425.43 374 1429.96 374H1438.96C1448.03 374 1455.29 376.733 1460.76 382.2C1466.23 387.667 1468.96 394.933 1468.96 404V450C1468.96 460 1466.09 467.867 1460.36 473.6C1454.76 479.2 1446.96 482 1436.96 482H1395.96ZM1528.94 456C1536 456 1544 454.667 1552.94 452V440H1523.94C1521.94 440 1520.27 440.667 1518.94 442C1517.6 443.333 1516.94 445 1516.94 447V449C1516.94 451 1517.6 452.667 1518.94 454C1520.27 455.333 1521.94 456 1523.94 456H1528.94ZM1491.94 378C1516.34 375.333 1538.34 374 1557.94 374C1567 374 1574.27 376.733 1579.74 382.2C1585.2 387.667 1587.94 394.933 1587.94 404V482H1556.94L1554.94 472C1548.67 476.133 1542.2 479.2 1535.54 481.2C1529 483.067 1523.47 484 1518.94 484H1511.94C1502.87 484 1495.6 481.267 1490.14 475.8C1484.67 470.333 1481.94 463.067 1481.94 454V445C1481.94 435.933 1484.67 428.667 1490.14 423.2C1495.6 417.733 1502.87 415 1511.94 415H1552.94V407C1552.94 405 1552.27 403.333 1550.94 402C1549.6 400.667 1547.94 400 1545.94 400C1537.27 400 1527.67 400.4 1517.14 401.2C1506.74 402 1498.34 402.6 1491.94 403V378ZM1664.88 403C1657.82 403 1649.82 404.333 1640.88 407V482H1605.88V376H1636.88L1638.88 386C1645.15 381.867 1651.55 378.867 1658.08 377C1664.75 375 1670.35 374 1674.88 374H1683.88C1692.95 374 1700.22 376.733 1705.68 382.2C1711.15 387.667 1713.88 394.933 1713.88 404V482H1678.88V410C1678.88 408 1678.22 406.333 1676.88 405C1675.55 403.667 1673.88 403 1671.88 403H1664.88ZM1759.86 518C1752.79 518 1744.13 517.333 1733.86 516V490H1751.86C1756.93 490 1760.19 488.6 1761.66 485.8C1763.26 483 1762.99 479.067 1760.86 474L1719.86 376H1756.86L1781.86 444L1802.86 376H1839.86L1799.86 486C1795.99 496.533 1790.99 504.467 1784.86 509.8C1778.73 515.267 1770.39 518 1759.86 518Z" fill="#262626"/>
<defs>
<linearGradient id="paint0_linear_63_112" x1="185.834" y1="0" x2="185.834" y2="487.064" gradientUnits="userSpaceOnUse">
<stop stop-color="#00359C"/>
<stop offset="0.583333" stop-color="#2C69DF"/>
</linearGradient>
<linearGradient id="paint1_linear_63_112" x1="185.834" y1="0" x2="185.834" y2="487.064" gradientUnits="userSpaceOnUse">
<stop offset="0.630208" stop-color="#2C69DF"/>
<stop offset="1" stop-color="#0038A6"/>
</linearGradient>
</defs>
</svg>
