<svg width="52" height="52" viewBox="0 0 52 52" fill="none" xmlns="http://www.w3.org/2000/svg">
<path d="M37.5138 14.421C34.4598 11.3506 30.3932 9.66846 26.0653 9.66846C17.1482 9.66846 9.88065 16.936 9.88065 25.8531C9.88065 28.7112 10.6319 31.4876 12.0364 33.9373L9.75 42.3318L18.3241 40.078C20.6922 41.3682 23.3543 42.0541 26.0653 42.0541C34.9824 42.0541 42.25 34.7866 42.25 25.8695C42.25 21.5416 40.5678 17.475 37.5138 14.421ZM26.0653 39.3104C23.6482 39.3104 21.2802 38.6572 19.206 37.4323L18.7161 37.1383L13.6206 38.4775L14.9761 33.5127L14.6495 33.0064C13.3103 30.867 12.5917 28.3845 12.5917 25.8531C12.5917 18.4386 18.6344 12.3958 26.049 12.3958C29.642 12.3958 33.0226 13.8004 35.554 16.3481C38.1018 18.8958 39.49 22.2765 39.49 25.8695C39.5226 33.284 33.4799 39.3104 26.0653 39.3104ZM33.4472 29.2501C33.0389 29.0541 31.0465 28.0742 30.6872 27.9273C30.3116 27.7966 30.0503 27.7313 29.7726 28.1232C29.495 28.5315 28.7274 29.4461 28.4987 29.7074C28.2701 29.985 28.0251 30.0177 27.6168 29.8054C27.2085 29.6094 25.902 29.1685 24.3668 27.7966C23.1583 26.7187 22.358 25.3958 22.1131 24.9876C21.8844 24.5793 22.0804 24.367 22.2927 24.1546C22.4724 23.975 22.701 23.681 22.897 23.4524C23.093 23.2237 23.1746 23.0441 23.3053 22.7828C23.4359 22.5051 23.3706 22.2765 23.2726 22.0805C23.1746 21.8845 22.358 19.8921 22.0314 19.0755C21.7048 18.2916 21.3618 18.3896 21.1168 18.3732C20.8719 18.3732 20.6106 18.3732 20.3329 18.3732C20.0553 18.3732 19.6307 18.4712 19.255 18.8795C18.8957 19.2878 17.8505 20.2677 17.8505 22.2602C17.8505 24.2526 19.304 26.1798 19.5 26.4411C19.696 26.7187 22.358 30.8016 26.4083 32.5491C27.3719 32.9737 28.1231 33.2187 28.7111 33.3984C29.6746 33.7087 30.5565 33.6597 31.2588 33.5617C32.0427 33.4474 33.6595 32.5818 33.9862 31.6345C34.3291 30.6873 34.3292 29.8871 34.2148 29.7074C34.1005 29.5278 33.8555 29.4461 33.4472 29.2501Z" fill="white"/>
<rect x="0.902778" y="0.902778" width="50.1944" height="50.1944" stroke="white" stroke-width="1.80556"/>
</svg>
